<svg xmlns="http://www.w3.org/2000/svg" viewBox="0 0 24 24" fill="white">
  <path d="M12.04 2C6.58 2 2.13 6.45 2.13 11.91c0 1.75.46 3.45 1.32 4.95L2.05 22l5.25-1.38c1.45.79 3.08 1.21 4.74 1.21 5.46 0 9.91-4.45 9.91-9.91 0-2.65-1.03-5.14-2.9-7.01A9.816 9.816 0 0012.04 2zm.01 1.67c2.2 0 4.26.86 5.82 2.42a8.22 8.22 0 012.41 5.82c0 4.54-3.7 8.23-8.24 8.23-1.48 0-2.93-.39-4.19-1.15l-.3-.17-3.12.82.83-3.04-.19-.32A8.16 8.16 0 013.8 11.9c.01-4.54 3.71-8.23 8.25-8.23zM8.53 7.33c-.16 0-.43.06-.66.31-.22.25-.87.86-.87 2.07 0 1.22.89 2.39 1.02 2.56.14.17 1.76 2.67 4.25 3.73.59.27 1.05.42 1.41.53.59.19 1.13.16 1.56.1.48-.07 1.46-.6 1.67-1.18.21-.58.21-1.08.15-1.18-.07-.1-.23-.17-.48-.29-.25-.12-1.47-.72-1.69-.8-.23-.08-.37-.12-.56.13-.11.12-.41.46-.6.64-.16.15-.36.17-.56.08-.25-.1-1.01-.36-1.92-1.17-.71-.63-1.18-1.4-1.32-1.65-.13-.24-.01-.37.1-.48.25-.24.51-.58.62-.72.1-.15.09-.33.03-.44-.06-.12-.5-1.35-.69-1.8-.19-.45-.38-.39-.56-.4-.12-.01-.27-.04-.9-.04z"/>
</svg>
